/* XPM */
static const char *exit[] = {
/* columns rows colors chars-per-pixel */
"64 64 12 1 ",
"  c #211F30",
". c #48475B",
"X c #62677A",
"o c #BA570B",
"O c #CE8B16",
"+ c #E1CA33",
"@ c #93C596",
"# c #9FCC98",
"$ c #F7EC8A",
"% c #AFBBC3",
"& c #D8E1E4",
"* c white",
/* pixels */
"@@@@@@@@@@@@@@@@@@@@@@@@@@@@@@@@@@@@@@@@@@@@@@@@@@@@@@@@@@@@@@@@",
"#@@@@@@@@@@@@@@@@@@@@@@@@@@@@@@@@@@@@@@@@@@@@@@@@@@@@@@@@@@@@@@#",
"##@@@@@@@@@@@@@@@@@@@@@@@@@@@@@@@@@@@@@@@@@@@@@@@@@@@@@@@@@@@@##",
"###@@@@@@@@@@@@@@@@@@@@@@@@@@@@@@@@@@@@@@@@@@@@@@@@@@@@@@@@@@###",
"####@@@@@@@@@@@@@@@@@@@@@@@@@@@@@@@@@@@@@@@@@@@@@@@@@@@@@@@@####",
"#####@@@@@@@@@@@@@@@@@@@@@@@@@@@@@@@@@@@@@@@@@@@@@@@@@@@@@@#####",
"######@@@@@@@@@@@@@@@@@@@@@@@@@@@@@@@@@@@@@@@@@@@@@@@@@@@@######",
"#######@@@@@@@@@@@@@@@@@@@@@@@@@@@@@@@@@@@@@@@@@@@@@@@@@@#######",
"########@@@@@@@@@@@@@@@@@@@@@@@@@@@@@@@@@@@@@@@@@@@@@@@@########",
"#########@@@@@@@@@@@@@@@@@@@@@@@@@@@@@@@@@@@@@@@@@@@@@@#########",
"##########@@@@@@@@@@@@@@@@@@@@@@@@@@@@@@@@@@@@@@@@@@@@##########",
"###########@@@@@@@@@@@@@@@@@@@@@@@@@@@@@@@@@@@@@@@@@@###########",
"############@@@@@@@@@@@@@@@@@@@@@@@@@@@@@@@@@@@@@@@@############",
"#############@@@@@@@@@@@@@@@@@@@@@@@@@@@@@@@@@@@@@@#############",
"##############@@@@@@@@@@@@@@@@@@@@@@@@@@@@@@@@@@@@##############",
"###############@@@@@@@@@@@@@@@@@@@@@@@@@@@@@@@@@@###############",
"################@@@@@@@@@@@@@@@@@@@@@@@@@@@@@@@@################",
"#################@@@@@@@@@@@@@@@@@@@@@@@@@@@@@@#################",
"##################@@@@@@@@@@@@@@@@@@@@@@@@@@@@##################",
"###################@@@@@@@@@@@@@@@@@@@@@@@@@@###################",
"#################                              #################",
"################ O+$$$$$$$$$$$$$$$$$$$$*$**$*** ################",
"###########      O+++++++++++++++++++++$+$$+$$$      ###########",
"########## *$$+O     oooooooooooooooooooooo     +$$** ##########",
"######### *$$++O  OO++++++++++++++++++++++++++  +++$$* #########",
"######### *$+    OO+++$$$$$$$$$$$$$$$$$$$$$$$++    +$* #########",
"######### $+ ### OO++$$+$$$$$$$$$$$$$**$$**$$$+ ### +$ #########",
"######### *+ ### OO++$$$$$$$$$$$$$$$$**$****$$+ ### +$ #########",
"######### $+ ### OO++$+$$$$$$$$$$$$$$$$$****$$+ ### +* #########",
"######### $+ ### OO++$$$$$$$$$$$$$$$$$$$$**$$$+ ### +* #########",
"######### $+ ### OO++$$$$$$$$$$$$$$$$$$$$$$$$$+ ### +$ #########",
"######### $+ ### OO++$$$$$$$$$$$$$$$$$$$$$$*$$+ ### +$ #########",
"######### $+ ### OO++$$$$$$$$$$$$$$$$$$$$$$$$$+ ### +$ #########",
"######### $+ ### OO++$$$$$$$$$$$$$$$$$$$$$$$$$+ ### +$ #########",
"######### $+ ### OO++$$+$$$$$$$$$$$$$$$$$$$$$$+ ### +$ #########",
"######### $$+    OO+++$$$++$$$$$$$$$$$$$$+$$$++    +$$ #########",
"######### +$$$+O OO++++$$++$$+$$$$$$$$$$$$$$+++ +$$$$+ #########",
"########## ++++OO OO+++++$$$$$$$$$$$$$$$$$++++ ++++++ ##########",
"###########       OOO++++++++++++++++++++++++O       ###########",
"################## OOOO++++++++++++++++++++OO ##################",
"###################  OOOOOOOOOOOOOOOOOOOOOO  ###################",
"#####################          oo          #####################",
"#####################@@@@@@@  ++++  @@@@@@@#####################",
"####################@@@@@@@@ +$$$$$ @@@@@@@@####################",
"###################@@@@@@@@   oooo   @@@@@@@@###################",
"##################@@@@@@@@ O+$$$$$$** @@@@@@@@##################",
"#################@@@@@@@@@ O+$$$$$$$$ @@@@@@@@@#################",
"################@@@@@@@@@@ O+++++++++ @@@@@@@@@@################",
"###############@@@@@@@@@@@@   oo+o   @@@@@@@@@@@@###############",
"##############@@@@@@@@@@@@@@ ++++++ @@@@@@@@@@@@@@##############",
"#############@@@@@@@@@@@@@@@ +$$$$$ @@@@@@@@@@@@@@@#############",
"############@@@@@@@@@@@@@@@ ++$$$$$+ @@@@@@@@@@@@@@@############",
"###########@@@@@@@@@@      +++++$$+++      @@@@@@@@@@###########",
"##########@@@@@@@@@@ ++$$$$$$$$$$$$$$$$*$** @@@@@@@@@@##########",
"#########@@@@@@@@@@ O+++++++++++++++++++++++ @@@@@@@@@@#########",
"########@@@@@@@@@@@ OOOOOOOOOOOOOOOOOOOOOOOO @@@@@@@@@@@########",
"#######@@@@@@@@                                  @@@@@@@@#######",
"######@@@@@@@@@ .XXX****XXXX****XXXX****XXXX**** @@@@@@@@@######",
"#####@@@@@@@@@@  ...&&&&....&&&&....&&&&....&&&* @@@@@@@@@@#####",
"####@@@@@@@@@@@  ...&&&&....&&&&....&&&&....&&&* @@@@@@@@@@@####",
"###@@@@@@@@@@@@  ...&&&&....&&&&....&&&&....&&&* @@@@@@@@@@@@###",
"##@@@@@@@@@@@@@ %&&&....&&&&....&&&&....&&&&...X @@@@@@@@@@@@@##",
"#@@@@@@@@@@@@@@ %&&&....&&&&....&&&&....&&&&...X @@@@@@@@@@@@@@#",
"@@@@@@@@@@@@@@@ %%%%    %%%%    %%%%    %%%%   . @@@@@@@@@@@@@@@"
};
