/* XPM */
static const char *player[] = {
/* columns rows colors chars-per-pixel */
"64 64 13 1 ",
"  c #211F30",
". c #A14744",
"X c #B96E54",
"o c #CF9E6E",
"O c #F2BC7E",
"+ c #2FACDA",
"@ c #6CD9F1",
"# c #93C596",
"$ c #9FCC98",
"% c #E4C997",
"& c #FBDFB1",
"* c #ACF7FA",
"= c white",
/* pixels */
"################################################################",
"$##############################################################$",
"$$############################################################$$",
"$$$##########################################################$$$",
"$$$$########################################################$$$$",
"$$$$$######################################################$$$$$",
"$$$$$$####################################################$$$$$$",
"$$$$$$$##################################################$$$$$$$",
"$$$$$$$$################################################$$$$$$$$",
"$$$$$$$$$##############################################$$$$$$$$$",
"$$$$$$$$$$############################################$$$$$$$$$$",
"$$$$$$$$$$$##########################################$$$$$$$$$$$",
"$$$$$$$$$$$$########################################$$$$$$$$$$$$",
"$$$$$$$$$$$$$######################################$$$$$$$$$$$$$",
"$$$$$$$$$$$$$$##########                      ####$$$$$$$$$$$$$$",
"$$$$$$$$$$$$$$$#########                      ###$$$$$$$$$$$$$$$",
"$$$$$$$$$$$$$$$$####    ****@@@@@@@@@@@@@@****  $$$$$$$$$$$$$$$$",
"$$$$$$$$$$$$$$$$$###    ****@@@@@@@@@@@@@@****  $$$$$$$$$$$$$$$$",
"$$$$$$$$$$$$$$$$$$  **@@@@@@@@@@@@@@@@@@@@@@@@**  $$$$$$$$$$$$$$",
"$$$$$$$$$$$$$$$$$$  **@@@@@@@@@@@@@@@@@@@@@@@@**  $$$$$$$$$$$$$$",
"$$$$$$$$$$$$$$$$  **@@@@++                        $$$$$$$$$$$$$$",
"$$$$$$$$$$$$$$$$  **@@@@++                        $$$$$$$$$$$$$$",
"$$$$$$$$$$$$$$  **@@@@++  XX..oooooooo%%oo%%%%oooo  $$$$$$$$$$$$",
"$$$$$$$$$$$$$$  **@@@@++  XX..oooooooo%%oo%%%%oooo  $$$$$$$$$$$$",
"$$$$$$$$$$$$$$  **@@++  XX..oooooooooooo%%oo%%%%oooo  $$$$$$$$$$",
"$$$$$$$$$$$$$$  **@@++  XX..oooooooooooo%%oo%%%%oooo  $$$$$$$$$$",
"$$$$$$$$$$$$  @@@@@@++  XX..oooooooooooooo%%oo%%%%oo  $$$$$$$$$$",
"$$$$$$$$$$$$  @@@@@@++  XX..oooooooooooooo%%oo%%%%oo  $$$$$$$$$$",
"$$$$$$$$$$$$            XX..oooooooooooooooo%%oo%%%%  $$$$$$$$$$",
"$$$$$$$$$$$$            XX..oooooooooooooooo%%oo%%%%  $$$$$$$$$$",
"$$$$$$$$$$  XXoo%%ooXX  XX..oooooooooooooooooo%%oo%%  $$$$$$$$$$",
"$$$$$$$$$$  XXoo%%ooXX  XX..oooooooooooooooooo%%oo%%  $$$$$$$$$$",
"$$$$$$$$$$              XX..oooooooooooooooooooo%%oo  $$$$$$$$$$",
"$$$$$$$$$$              XX..oooooooooooooooooooo%%oo  $$$$$$$$$$",
"$$$$$$$$$$$$  ++++++++  XX..oooooooooooooooooooooo%%  $$$$$$$$$$",
"$$$$$$$$$$$$  ++++++++  XX..oooooooooooooooooooooo%%  $$$$$$$$$$",
"$$$$$$$$$$$$  ++@@@@++  XX..XXoooooo..........ooooXX  $$$$$$$$$$",
"$$$$$$$$$$$$  ++@@@@++  XX..XXoooooo..........ooooXX  $$$$$$$$$$",
"$$$$$$$$$$$$  ++@@@@@@++  XX..XXXXXXXXXXXXXXXXXXXX  $$$$$$$$$$$$",
"$$$$$$$$$$$$  ++@@@@@@++  XX..XXXXXXXXXXXXXXXXXXXX  $$$$$$$$$$$$",
"$$$$$$$$$$$$$$  ++@@@@@@++                        $$$$$$$$$$$$$$",
"$$$$$$$$$$$$$$  ++@@@@@@++                        $$$$$$$$$$$$$$",
"$$$$$$$$$$$$$$$$  ++++@@@@++++++++++++++++++++++  $$$$$$$$$$$$$$",
"$$$$$$$$$$$$$$$$  ++++@@@@++++++++++++++++++++++  $$$$$$$$$$$$$$",
"$$$$$$$$$$$$$$$$$$    @@@@@@@@@@========**@@    $$$$$$$$$$$$$$$$",
"$$$$$$$$$$$$$$$$$$    @@@@@@@@@@========**@@    $$$$$$$$$$$$$$$$",
"$$$$$$$$$$$$$$$$  @@@@@@@@@@@@@@@@@@@@@@@@@@@@    $$$$$$$$$$$$$$",
"$$$$$$$$$$$$$$$$  @@@@@@@@@@@@@@@@@@@@@@@@@@@@    $$$$$$$$$$$$$$",
"$$$$$$$$$$$$$$  @@@@@@++@@@@@@@@@@====**@@@@@@  ++  $$$$$$$$$$$$",
"$$$$$$$$$$$$$$  @@@@@@++@@@@@@@@@@====**@@@@@@  ++  $$$$$$$$$$$$",
"$$$$$$$$$$$$$#      ++  @@@@@@@@@@@@@@@@@@@@@@      $$$$$$$$$$$$",
"$$$$$$$$$$$$##      ++  @@@@@@@@@@@@@@@@@@@@@@      $$$$$$$$$$$$",
"$$$$$$$$$$$###  &&OO  @@@@@@@@@@@@@@**@@@@@@@@  OO  #$$$$$$$$$$$",
"$$$$$$$$$$####  &&OO  @@@@@@@@@@@@@@**@@@@@@@@  OO  ##$$$$$$$$$$",
"$$$$$$$$$#######    ++@@@@@@@@@@@@@@@@@@@@@@@@    #####$$$$$$$$$",
"$$$$$$$$########    ++@@@@@@@@@@@@@@@@@@@@@@@@    ######$$$$$$$$",
"$$$$$$$###########  ++@@@@                @@@@  #########$$$$$$$",
"$$$$$$############  ++@@@@                @@@@  ##########$$$$$$",
"$$$$$#############  ++@@++  ##########  ++@@++  ###########$$$$$",
"$$$$##############  ++@@++  ##########  ++@@++  ############$$$$",
"$$$###############  ++++  ############  ++++  ###############$$$",
"$$################  ++++  ############  ++++  ################$$",
"$###################    ################    ###################$",
"####################    ################    ####################"
};
