/* XPM */
static const char *wall[] = {
/* columns rows colors chars-per-pixel */
"64 64 7 1 ",
"  c black",
". c #211F30",
"X c #9C1B4D",
"o c #CC3048",
"O c #E44A4A",
"+ c #F18B72",
"@ c #F9BFA7",
/* pixels */
"                                                                ",
" O+++++++XOO+++++++++++++++++++XO+++++++++++++++++++XXO+++++++@ ",
" oOOOOOOOXOOOOOOOOOOOOOOOOOOOOOXOOOOOOOOOOOOOOOOOOOOXXOOOOOOOO+ ",
" oOOOOOOOXOOOOOOOOOOOOOOOOOOOOOXOOOOOOOOOOOOOOOOOOOOXXOOOOOOOO+ ",
" oOOOOOOOXOOOOOOOOOOOOOOOOOOOOOXOOOOOOOOOOOOOOOOOOOOXXOOOOOOOO+ ",
" oOOOOOOO.OOOOOOOOOOOOOOOOOOOOO.OOOOOOOOOOOOOOOOOOOO..OOOOOOOOO ",
" .XXXXXX....XXXXXXXXXXXXXXXXX....XXX....XXXXXXXXXXX....XXXXXXX. ",
" .XXXXXX....XXXXXXXXXXXXXXXXX....XXX....XXXXXXXXXXX....XXXXXXX. ",
" XooooooooooooooXOOOOOOOOOOOOOOOOOOOO..OOOOOOOOOOOOOOOOOOOOXOO+ ",
" XooooooooooooooXOOOOOOOOOOOOOOOOOOOOXXOOOOOOOOOOOOOOOOOOOOXOO+ ",
" XooooooooooooooXOOOOOOOOOOOOOOOOOOOOXXOOOOOOOOOOOOOOOOOOOOXOO+ ",
" XooooooooooooooXOOOOOOOOOOOOOOOOOOOOXXOOOOOOOOOOOOOOOOOOOOXOO+ ",
" Xoooooooooooooo.OOOOOOOOOOOOOOOOOOOO..OOOOOOOOOOOOOOOOOOOO.OOO ",
" X....XXXXXXXX.....XXXXX....XXXXXXXX....XXXXX.....XXXXXXXX....X ",
" Xoo.OOOOOOOOOOOOOOOOOOOO..OOOOOOOOOOOOOOOOOOOO.OOOOOOOOOOOOOO+ ",
" Xoo.OOOOOOOOOOOOOOOOOOOO..OOOOOOOOOOOOOOOOOOOO.OOOOOOOOOOOOOO+ ",
" XooXOOOOOOOOOOOOOOOOOOOOXXOOOOOOOOOOOOOOOOOOOOXOOOOOOOOOOOOOO+ ",
" XooXOOOOOOOOOOOOOOOOOOOOXXOOOOOOOOOOOOOOOOOOOOXOOOOOOOOOOOOOO+ ",
" XooXOOOOOOOOOOOOOOOOOOOOXXOOOOOOOOOOOOOOOOOOOOXOOOOOOOOOOOOOO+ ",
" XooXOOOOOOOOOOOOOOOOOOOOXXOOOOOOOOOOOOOOOOOOOOXOOOOOOOOOOOOOO+ ",
" Xoo.OOOOOOOOOOOOOOOOOOOO..OOOOOOOOOOOOOOOOOOOO.OOOOOOOOOOOOOOO ",
" X....XX....XXXXXXXXXXXX....XXXXXXXXXXXXXXXXX.....X....XXXXXXXX ",
" X....XX....XXXXXXXXXXXX....XXXXXXXXXXXXXXXXX.....X....XXXXXXXX ",
" Xooooooo.OOOOOOOOOOOOOOOOOOOOOXOOOOOOOOOOOOOOOOOOOO..OOOOOOOO+ ",
" XoooooooXOOOOOOOOOOOOOOOOOOOOOXOOOOOOOOOOOOOOOOOOOOXXOOOOOOOO+ ",
" XoooooooXOOOOOOOOOOOOOOOOOOOOOXOOOOOOOOOOOOOOOOOOOOXXOOOOOOOO+ ",
" XoooooooXOOOOOOOOOOOOOOOOOOOOOXOOOOOOOOOOOOOOOOOOOOXXOOOOOOOO+ ",
" Xooooooo.OOOOOOOOOOOOOOOOOOOOO.OOOOOOOOOOOOOOOOOOOO..OOOOOOOOO ",
" .XXXXXX....XX.....XXXXXXXXXX....XXX....XXXXXXXXXXX....XXX....X ",
" Xoooooooooooooo.OOOOOOOOOOOOOOOOOOOO..OOOOOOOOOOOOOOOOOOOO.OO+ ",
" Xoooooooooooooo.OOOOOOOOOOOOOOOOOOOO..OOOOOOOOOOOOOOOOOOOO.OO+ ",
" XooooooooooooooXOOOOOOOOOOOOOOOOOOOOXXOOOOOOOOOOOOOOOOOOOOXOO+ ",
" XooooooooooooooXOOOOOOOOOOOOOOOOOOOOXXOOOOOOOOOOOOOOOOOOOOXOO+ ",
" Xoooooooooooooo.OOOOOOOOOOOOOOOOOOOO..OOOOOOOOOOOOOOOOOOOO.OOO ",
" Xoooooooooooooo.OOOOOOOOOOOOOOOOOOOO..OOOOOOOOOOOOOOOOOOOO.OOO ",
" X....XXXXXXXX.....XXXXX....XXXXXXXX....XXXXX.....XXXXXXXX....X ",
" Xoo.OOOOOOOOOOOOOOOOOOOO..OOOOOOOOOOOOOOOOOOOO.OOOOOOOOOOOOOO+ ",
" XooXOOOOOOOOOOOOOOOOOOOOXXOOOOOOOOOOOOOOOOOOOOXOOOOOOOOOOOOOO+ ",
" XooXOOOOOOOOOOOOOOOOOOOOXXOOOOOOOOOOOOOOOOOOOOXOOOOOOOOOOOOOO+ ",
" XooXOOOOOOOOOOOOOOOOOOOOXXOOOOOOOOOOOOOOOOOOOOXOOOOOOOOOOOOOO+ ",
" XooXOOOOOOOOOOOOOOOOOOOOXXOOOOOOOOOOOOOOOOOOOOXOOOOOOOOOOOOOO+ ",
" Xoo.OOOOOOOOOOOOOOOOOOOO..OOOOOOOOOOOOOOOOOOOO.OOOOOOOOOOOOOOO ",
" Xoo.OOOOOOOOOOOOOOOOOOOO..OOOOOOOOOOOOOOOOOOOO.OOOOOOOOOOOOOOO ",
" X....XXXXXXXXXXXXXXXXXX....X....XXXXXXXXXXXX.....XXXXXXXXXXXXX ",
" XoooooooXOOOOOOOOOOOOOOOOOOOOO.OOOOOOOOOOOOOOOOOOOOXXOOOOOOOO+ ",
" XoooooooXOOOOOOOOOOOOOOOOOOOOOXOOOOOOOOOOOOOOOOOOOOXXOOOOOOOO+ ",
" XoooooooXOOOOOOOOOOOOOOOOOOOOOXOOOOOOOOOOOOOOOOOOOOXXOOOOOOOO+ ",
" XoooooooXOOOOOOOOOOOOOOOOOOOOOXOOOOOOOOOOOOOOOOOOOOXXOOOOOOOO+ ",
" Xooooooo.OOOOOOOOOOOOOOOOOOOOO.OOOOOOOOOOOOOOOOOOOO..OOOOOOOOO ",
" Xooooooo.OOOOOOOOOOOOOOOOOOOOO.OOOOOOOOOOOOOOOOOOOO..OOOOOOOOO ",
" .XXXXXX....XX.....XXXXXXXXXX....XXXXXXXXXXXXXXXXXX....XXX....X ",
" Xoooooooooooooo.OOOOOOOOOOOOOOOOOOOOXXOOOOOOOOOOOOOOOOOOOO.OO+ ",
" XooooooooooooooXOOOOOOOOOOOOOOOOOOOOXXOOOOOOOOOOOOOOOOOOOOXOO+ ",
" XooooooooooooooXOOOOOOOOOOOOOOOOOOOOXXOOOOOOOOOOOOOOOOOOOOXOO+ ",
" XooooooooooooooXOOOOOOOOOOOOOOOOOOOOXXOOOOOOOOOOOOOOOOOOOOXOO+ ",
" Xoooooooooooooo.OOOOOOOOOOOOOOOOOOOO..OOOOOOOOOOOOOOOOOOOO.OOO ",
" X....XXXXXXXX.....XXXXX....XXXXXXXX....XXXXX.....XXXXXXXX....X ",
" X....XXXXXXXX.....XXXXX....XXXXXXXX....XXXXX.....XXXXXXXX....X ",
" Xoo.oooooooooooooooooooo..oooooooooooooooooooo.oooooooooooooo+ ",
" XooXooooooooooooooooooooXXooooooooooooooooooooXoooooooooooooo+ ",
" XooXooooooooooooooooooooXXooooooooooooooooooooXoooooooooooooo+ ",
" XooXooooooooooooooooooooXXooooooooooooooooooooXoooooooooooooo+ ",
" XXXXXXXXXXXXXXXXXXXXXXXXXXXXXXXXXXXXXXXXXXXXXXXXXXXXXXXXXXXXXo ",
"                                                                "
};
